<svg xmlns="http://www.w3.org/2000/svg" viewBox="0 0 293.43 70.1"><defs><style>.cls-1{fill:#fff;}.cls-2{fill:#9bd7d0;}</style></defs><g id="Layer_2" data-name="Layer 2"><g id="Layer_1-2" data-name="Layer 1"><path class="cls-1" d="M28,41.13a5.08,5.08,0,0,0-1.92-4.22,23.73,23.73,0,0,0-6.73-3.12,66.2,66.2,0,0,1-7.87-3.13q-10-4.89-9.95-13.43A12,12,0,0,1,4,9.72a16,16,0,0,1,7-5.06A27.21,27.21,0,0,1,21.23,2.85a23.78,23.78,0,0,1,9.9,2,15.62,15.62,0,0,1,6.8,5.6,14.65,14.65,0,0,1,2.43,8.32H28.05a6.17,6.17,0,0,0-1.91-4.85A7.48,7.48,0,0,0,21,12.16a8.45,8.45,0,0,0-5.22,1.46,4.47,4.47,0,0,0-1.91,3.71,4.49,4.49,0,0,0,2.11,3.57,26.39,26.39,0,0,0,7.41,3.31,45.09,45.09,0,0,1,8.72,3.67q8.3,4.79,8.3,13.18A12.52,12.52,0,0,1,35.3,51.61q-5.07,3.82-13.89,3.83a27.55,27.55,0,0,1-11.27-2.23,17,17,0,0,1-7.59-6.12,15.93,15.93,0,0,1-2.55-9H12.38c0,2.75.7,4.77,2.12,6.07s3.72,1.95,6.91,1.95a7.91,7.91,0,0,0,4.83-1.32A4.33,4.33,0,0,0,28,41.13Z"/><path class="cls-1" d="M45.37,35.37a22.57,22.57,0,0,1,2.21-10.15A15.83,15.83,0,0,1,54,18.39,19.08,19.08,0,0,1,63.69,16q8.53,0,13.46,5.29t4.92,14.39v.43q0,8.89-4.94,14.11T63.76,55.44q-8.13,0-13-4.87T45.4,37.37Zm11.85.74q0,5.27,1.65,7.73a5.5,5.5,0,0,0,4.89,2.46q6.32,0,6.46-9.74V35.37q0-10.23-6.53-10.23-6,0-6.44,8.82Z"/><path class="cls-1" d="M110.67,50.62a12.19,12.19,0,0,1-10.16,4.82q-6.26,0-9.47-3.64T87.82,41.34V16.7H99.67V41.41q0,4.89,4.74,4.89,4.08,0,5.8-2.92V16.7h11.92v38H111Z"/><path class="cls-1" d="M140.22,16.7l.39,4.46A12.89,12.89,0,0,1,151.47,16q5.94,0,8.88,3.55c2,2.36,3,5.93,3,10.68V54.74H151.5v-24a6.39,6.39,0,0,0-1.16-4.24c-.77-.9-2.18-1.35-4.22-1.35A5.63,5.63,0,0,0,141,27.88V54.74H129.11v-38Z"/><path class="cls-1" d="M169.17,35.44q0-9,3.9-14.24A12.85,12.85,0,0,1,184,16a10.92,10.92,0,0,1,8.58,4V.74h11.88v54H193.78l-.6-4.08a11.21,11.21,0,0,1-9.28,4.78,12.83,12.83,0,0,1-10.76-5.2Q169.17,45,169.17,35.44Zm11.85.74q0,10.13,5.9,10.12a5.84,5.84,0,0,0,5.63-3.3V28.51A5.68,5.68,0,0,0,187,25.14q-5.48,0-5.94,8.86Z"/><path class="cls-2" d="M211.79,6.89a5.29,5.29,0,0,1,1.83-4.15,7.77,7.77,0,0,1,9.5,0,5.31,5.31,0,0,1,1.82,4.15A5.31,5.31,0,0,1,223.12,11a7.77,7.77,0,0,1-9.5,0A5.29,5.29,0,0,1,211.79,6.89Zm12.59,47.85H212.5v-38h11.88Z"/><path class="cls-2" d="M235,54.74V24.93H229.5V16.7H235v-3q0-6.51,3.83-10.09T249.61,0a23.72,23.72,0,0,1,5.55.74l0,8.72a10.87,10.87,0,0,0-2.92-.32q-5.39,0-5.38,4.64V16.7h7.42v8.23H246.9V54.74Z"/><path class="cls-2" d="M274.41,38.14l6.33-21.44h12.69L277.92,61.1l-.67,1.62Q274,70.1,265.58,70.1a18.43,18.43,0,0,1-4.88-.7V61h1.54a8.13,8.13,0,0,0,3.82-.72A4.35,4.35,0,0,0,268,57.65l.95-2.53L255.74,16.7H268.4Z"/></g></g></svg>